<svg version="1.1" xmlns="http://www.w3.org/2000/svg" xmlns:xlink="http://www.w3.org/1999/xlink" viewBox="0 0 171 171"><g fill="none" fill-rule="nonzero" stroke="none" stroke-width="1" stroke-linecap="butt" stroke-linejoin="miter" stroke-miterlimit="10" stroke-dasharray="" stroke-dashoffset="0" font-family="none" font-weight="none" font-size="none" text-anchor="none" style="mix-blend-mode: normal"><path d="M0,171.99294v-171.99294h171.99294v171.99294z" fill="none"></path><g fill="#6ad06a"><path d="M85.56012,6.77988c-32.76593,0 -60.89396,20.1231 -72.68836,48.69492c-0.99107,2.27018 -0.67745,4.89878 0.81993,6.87205c1.49737,1.97328 3.94452,2.9829 6.39769,2.63951c2.45317,-0.34339 4.52904,-1.98615 5.42704,-4.29473c9.73792,-23.59002 32.87072,-40.23176 60.04371,-40.23176c35.96856,0 64.98,29.01144 64.98,64.98c0,35.96856 -29.01144,64.98 -64.98,64.98c-27.16925,0 -50.30598,-16.63553 -60.04371,-40.22508c-0.898,-2.30858 -2.97387,-3.95134 -5.42704,-4.29473c-2.45317,-0.34339 -4.90031,0.66623 -6.39769,2.63951c-1.49737,1.97328 -1.811,4.60187 -0.81993,6.87205c11.79459,28.57229 39.92553,48.68824 72.68836,48.68824c43.36176,0 78.66,-35.29824 78.66,-78.66c0,-43.36176 -35.29824,-78.66 -78.66,-78.66zM92.21309,54.59309c-2.78335,0.00073 -5.28875,1.68781 -6.3361,4.26659c-1.04735,2.57878 -0.42782,5.53503 1.5668,7.4763l12.26391,12.26391h-86.08781c-2.46675,-0.03489 -4.7612,1.26113 -6.00475,3.39177c-1.24356,2.13064 -1.24356,4.76582 0,6.89646c1.24356,2.13064 3.538,3.42666 6.00475,3.39177h86.08781l-12.26391,12.2639c-1.78684,1.7156 -2.5066,4.26313 -1.88172,6.66013c0.62489,2.39699 2.49679,4.26889 4.89378,4.89378c2.39699,0.62489 4.94453,-0.09488 6.66013,-1.88172l23.94,-23.94c2.67012,-2.67122 2.67012,-7.00096 0,-9.67219l-23.94,-23.94c-1.28777,-1.32376 -3.05608,-2.07059 -4.90289,-2.0707z"></path></g></g></svg>