<svg version="1.1" xmlns="http://www.w3.org/2000/svg" xmlns:xlink="http://www.w3.org/1999/xlink" viewBox="0 0 172 172"><defs><linearGradient x1="86" y1="18.81519" x2="86" y2="153.18212" gradientUnits="userSpaceOnUse" id="color-1"><stop offset="0" stop-color="#ffffff"></stop><stop offset="1" stop-color="#ffffff"></stop></linearGradient><linearGradient x1="86" y1="32.08875" x2="86" y2="139.91125" gradientUnits="userSpaceOnUse" id="color-2"><stop offset="0" stop-color="#ffffff"></stop><stop offset="1" stop-color="#ffffff"></stop></linearGradient></defs><g fill="none" fill-rule="nonzero" stroke="none" stroke-width="1" stroke-linecap="butt" stroke-linejoin="miter" stroke-miterlimit="10" stroke-dasharray="" stroke-dashoffset="0" font-family="none" font-weight="none" font-size="none" text-anchor="none" style="mix-blend-mode: normal"><path d="M0,172v-172h172v172z" fill="none"></path><g><path d="M133.72194,153.18481c-2.064,0 -4.128,-0.78475 -5.70019,-2.35694l-42.02175,-42.02444l-42.02175,42.02175c-3.14438,3.14169 -8.25869,3.14169 -11.40306,0l-11.40306,-11.40306c-3.14437,-3.14437 -3.14437,-8.25869 0,-11.40306l42.02444,-42.01906l-42.02175,-42.02175c-3.14437,-3.14438 -3.14437,-8.25869 0,-11.40306l11.40306,-11.40306c3.14169,-3.14437 8.256,-3.14706 11.40306,0l42.01906,42.02444l42.02175,-42.02175c3.14438,-3.14706 8.25869,-3.14437 11.40306,0l11.40306,11.40306c3.14438,3.14438 3.14438,8.25869 0,11.40306l-42.02444,42.01906l42.02175,42.02175c3.14437,3.14437 3.14437,8.25869 0,11.40306l-11.40306,11.40306c-1.57219,1.5695 -3.63619,2.35694 -5.70019,2.35694zM86,101.20319l45.82188,45.82188c1.04812,1.04812 2.75469,1.04544 3.80281,0l11.40306,-11.40306c1.04812,-1.04812 1.04812,-2.752 0,-3.80281l-45.82456,-45.81919l45.82188,-45.82187c1.04812,-1.04813 1.04812,-2.752 0,-3.80281l-11.40306,-11.40306c-1.04812,-1.04813 -2.75469,-1.05081 -3.80281,0l-45.81919,45.82456l-45.82187,-45.82188c-1.04813,-1.04813 -2.75469,-1.04544 -3.80281,0l-11.40306,11.40306c-1.04813,1.04812 -1.04813,2.752 0,3.80281l45.82456,45.81919l-45.82188,45.82188c-1.04813,1.04812 -1.04813,2.752 0,3.80281l11.40306,11.40306c1.04544,1.04544 2.752,1.04812 3.80281,0z" fill="url(#color-1)"></path><path d="M139.91394,37.78894l-5.70288,-5.70288l-48.21106,48.21375l-48.21106,-48.21375l-5.70288,5.70288l48.21375,48.21106l-48.21375,48.21106l5.70288,5.70288l48.21106,-48.21375l48.21106,48.21375l5.70288,-5.70288l-48.21375,-48.21106z" fill="url(#color-2)"></path></g></g></svg>