<?xml version="1.0" encoding="UTF-8"?>
<svg xmlns="http://www.w3.org/2000/svg" xmlns:xlink="http://www.w3.org/1999/xlink" width="60px" height="60px" viewBox="0 0 60 60" version="1.1">
<g id="surface1">
<path style=" stroke:none;fill-rule:nonzero;fill:rgb(68.627451%,79.607843%,100%);fill-opacity:1;" d="M 29.230469 48.339844 L 25.457031 42.601562 C 25.070312 42.015625 25.507812 41.25 26.226562 41.25 L 33.773438 41.25 C 34.492188 41.25 34.929688 42.015625 34.542969 42.601562 L 30.769531 48.339844 C 30.414062 48.886719 29.585938 48.886719 29.230469 48.339844 Z M 29.230469 48.339844 "/>
<path style=" stroke:none;fill-rule:nonzero;fill:rgb(24.705882%,51.372549%,100%);fill-opacity:1;" d="M 52.632812 26.476562 C 53.160156 25.21875 53.4375 23.863281 53.4375 22.5 C 53.4375 16.8125 48.8125 12.1875 43.125 12.1875 C 40.894531 12.1875 38.757812 12.902344 36.984375 14.21875 C 34.527344 9.03125 29.238281 5.625 23.4375 5.625 C 15.167969 5.625 8.4375 12.355469 8.4375 20.625 C 8.4375 21.914062 8.609375 23.203125 8.949219 24.46875 C 3.914062 25.144531 0 29.492188 0 34.6875 C 0 40.375 4.625 45 10.3125 45 L 18.75 45 L 18.75 51.5625 C 18.75 53.113281 20.011719 54.375 21.5625 54.375 L 38.4375 54.375 C 39.988281 54.375 41.25 53.113281 41.25 51.5625 L 41.25 45 L 50.625 45 C 55.792969 45 60 40.792969 60 35.625 C 60 31.1875 56.859375 27.402344 52.632812 26.476562 Z M 38.4375 52.5 L 21.5625 52.5 C 21.046875 52.5 20.625 52.078125 20.625 51.5625 L 20.625 37.5 L 39.375 37.5 L 39.375 51.5625 C 39.375 52.078125 38.953125 52.5 38.4375 52.5 Z M 21.203125 35.625 L 21.882812 34.269531 C 22.042969 33.949219 22.363281 33.75 22.722656 33.75 L 37.277344 33.75 C 37.636719 33.75 37.957031 33.949219 38.117188 34.269531 L 38.796875 35.625 Z M 50.625 43.125 L 41.25 43.125 L 41.25 36.339844 L 39.792969 33.429688 C 39.316406 32.472656 38.351562 31.875 37.277344 31.875 L 22.722656 31.875 C 21.648438 31.875 20.683594 32.472656 20.203125 33.429688 L 18.75 36.339844 L 18.75 43.125 L 10.3125 43.125 C 5.660156 43.125 1.875 39.339844 1.875 34.6875 C 1.875 30.09375 5.613281 26.3125 10.207031 26.253906 L 11.515625 26.238281 L 11.078125 25.003906 C 10.570312 23.574219 10.3125 22.097656 10.3125 20.625 C 10.3125 13.386719 16.199219 7.5 23.4375 7.5 C 28.898438 7.5 33.84375 10.949219 35.738281 16.085938 L 36.234375 17.433594 L 37.269531 16.433594 C 38.851562 14.90625 40.933594 14.0625 43.125 14.0625 C 47.777344 14.0625 51.5625 17.847656 51.5625 22.5 C 51.5625 23.984375 51.164062 25.453125 50.410156 26.742188 L 49.644531 28.046875 L 51.152344 28.152344 C 55.0625 28.425781 58.125 31.707031 58.125 35.625 C 58.125 39.761719 54.761719 43.125 50.625 43.125 Z M 50.625 43.125 "/>
<path style=" stroke:none;fill-rule:nonzero;fill:rgb(24.705882%,51.372549%,100%);fill-opacity:1;" d="M 47.8125 22.5 L 49.6875 22.5 C 49.6875 18.882812 46.742188 15.9375 43.125 15.9375 L 43.125 17.8125 C 45.710938 17.8125 47.8125 19.914062 47.8125 22.5 Z M 47.8125 22.5 "/>
<path style=" stroke:none;fill-rule:nonzero;fill:rgb(24.705882%,51.372549%,100%);fill-opacity:1;" d="M 23.4375 9.375 C 17.234375 9.375 12.1875 14.421875 12.1875 20.625 L 14.0625 20.625 C 14.0625 15.457031 18.269531 11.25 23.4375 11.25 C 28.605469 11.25 32.8125 15.457031 32.8125 20.625 L 34.6875 20.625 C 34.6875 14.421875 29.640625 9.375 23.4375 9.375 Z M 23.4375 9.375 "/>
<path style=" stroke:none;fill-rule:nonzero;fill:rgb(24.705882%,51.372549%,100%);fill-opacity:1;" d="M 15.9375 20.625 L 17.8125 20.625 C 17.8125 17.523438 20.335938 15 23.4375 15 L 23.4375 13.125 C 19.300781 13.125 15.9375 16.488281 15.9375 20.625 Z M 15.9375 20.625 "/>
<path style=" stroke:none;fill-rule:nonzero;fill:rgb(24.705882%,51.372549%,100%);fill-opacity:1;" d="M 43.125 19.6875 L 43.125 21.5625 C 43.640625 21.5625 44.0625 21.984375 44.0625 22.5 L 45.9375 22.5 C 45.9375 20.949219 44.675781 19.6875 43.125 19.6875 Z M 43.125 19.6875 "/>
<path style=" stroke:none;fill-rule:nonzero;fill:rgb(24.705882%,51.372549%,100%);fill-opacity:1;" d="M 3.75 34.6875 C 3.75 38.304688 6.695312 41.25 10.3125 41.25 L 10.3125 39.375 C 7.726562 39.375 5.625 37.273438 5.625 34.6875 C 5.625 32.101562 7.726562 30 10.3125 30 L 10.3125 28.125 C 6.695312 28.125 3.75 31.070312 3.75 34.6875 Z M 3.75 34.6875 "/>
<path style=" stroke:none;fill-rule:nonzero;fill:rgb(24.705882%,51.372549%,100%);fill-opacity:1;" d="M 50.625 30 C 47.523438 30 45 32.523438 45 35.625 C 45 38.726562 47.523438 41.25 50.625 41.25 C 53.726562 41.25 56.25 38.726562 56.25 35.625 C 56.25 32.523438 53.726562 30 50.625 30 Z M 50.625 39.375 C 48.558594 39.375 46.875 37.691406 46.875 35.625 C 46.875 33.558594 48.558594 31.875 50.625 31.875 C 52.691406 31.875 54.375 33.558594 54.375 35.625 C 54.375 37.691406 52.691406 39.375 50.625 39.375 Z M 50.625 39.375 "/>
</g>
</svg>
