<?xml version="1.0" encoding="UTF-8"?>
<svg xmlns="http://www.w3.org/2000/svg" xmlns:xlink="http://www.w3.org/1999/xlink" width="60px" height="60px" viewBox="0 0 60 60" version="1.1">
<g id="surface1">
<path style=" stroke:none;fill-rule:nonzero;fill:rgb(24.705882%,51.372549%,100%);fill-opacity:1;" d="M 54.28125 42.84375 L 52.3125 39 C 51.84375 38.0625 50.90625 37.5 49.78125 37.5 L 49.6875 37.5 L 49.6875 15 C 49.6875 14.25 49.5 13.5 49.125 12.84375 L 47.15625 9 C 46.6875 8.0625 45.75 7.5 44.625 7.5 L 15.375 7.5 C 14.34375 7.5 13.40625 8.0625 12.84375 9 L 10.875 12.84375 C 10.5 13.5 10.3125 14.25 10.3125 15 L 10.3125 37.5 L 10.21875 37.5 C 9.1875 37.5 8.25 38.0625 7.6875 39 L 5.71875 42.84375 C 5.625 42.9375 5.625 43.125 5.625 43.21875 L 5.625 50.625 C 5.625 51.65625 6.46875 52.5 7.5 52.5 L 14.0625 52.5 C 15.09375 52.5 15.9375 51.65625 15.9375 50.625 L 15.9375 47.8125 L 24.375 47.8125 L 24.375 50.625 C 24.375 51.65625 25.21875 52.5 26.25 52.5 L 33.75 52.5 C 34.78125 52.5 35.625 51.65625 35.625 50.625 L 35.625 47.8125 L 44.0625 47.8125 L 44.0625 50.625 C 44.0625 51.65625 44.90625 52.5 45.9375 52.5 L 52.5 52.5 C 53.53125 52.5 54.375 51.65625 54.375 50.625 L 54.375 43.21875 C 54.375 43.125 54.375 42.9375 54.28125 42.84375 Z M 49.78125 39.375 C 50.15625 39.375 50.4375 39.5625 50.625 39.84375 L 51.84375 42.1875 C 51.75 42.1875 51.65625 42.1875 51.5625 42.1875 L 48.65625 42.1875 C 49.21875 41.4375 49.59375 40.40625 49.59375 39.375 Z M 12.28125 39.375 L 12.28125 15 L 23.4375 15 L 23.4375 15.9375 C 23.4375 17.53125 24.65625 18.75 26.25 18.75 L 33.75 18.75 C 35.34375 18.75 36.5625 17.53125 36.5625 15.9375 L 36.5625 15 L 47.71875 15 L 47.71875 39.375 C 47.71875 40.96875 46.5 42.1875 44.90625 42.1875 L 15.09375 42.1875 C 13.5 42.1875 12.28125 40.96875 12.28125 39.375 Z M 45.46875 9.84375 L 47.15625 13.125 L 36.5625 13.125 L 36.5625 9.375 L 44.625 9.375 C 44.90625 9.375 45.28125 9.5625 45.46875 9.84375 Z M 29.0625 9.375 L 29.0625 15 L 30.9375 15 L 30.9375 9.375 L 34.6875 9.375 L 34.6875 15.9375 C 34.6875 16.5 34.3125 16.875 33.75 16.875 L 26.25 16.875 C 25.6875 16.875 25.3125 16.5 25.3125 15.9375 L 25.3125 9.375 Z M 14.53125 9.84375 C 14.71875 9.5625 15 9.375 15.375 9.375 L 23.4375 9.375 L 23.4375 13.125 L 12.84375 13.125 Z M 9.375 39.84375 C 9.5625 39.5625 9.84375 39.375 10.21875 39.375 L 10.3125 39.375 C 10.3125 40.40625 10.6875 41.4375 11.25 42.1875 L 8.4375 42.1875 C 8.34375 42.1875 8.25 42.1875 8.15625 42.1875 Z M 52.5 50.625 L 45.9375 50.625 L 45.9375 45.9375 L 33.75 45.9375 L 33.75 50.625 L 26.25 50.625 L 26.25 45.9375 L 14.0625 45.9375 L 14.0625 50.625 L 7.5 50.625 L 7.5 45 C 7.5 44.4375 7.875 44.0625 8.4375 44.0625 L 51.5625 44.0625 C 52.125 44.0625 52.5 44.4375 52.5 45 Z M 52.5 50.625 "/>
<path style=" stroke:none;fill-rule:nonzero;fill:rgb(24.705882%,51.372549%,100%);fill-opacity:1;" d="M 15 37.5 L 28.125 37.5 L 28.125 39.375 L 15 39.375 Z M 15 37.5 "/>
<path style=" stroke:none;fill-rule:nonzero;fill:rgb(24.705882%,51.372549%,100%);fill-opacity:1;" d="M 15 33.75 L 24.375 33.75 L 24.375 35.625 L 15 35.625 Z M 15 33.75 "/>
<path style=" stroke:none;fill-rule:nonzero;fill:rgb(24.705882%,51.372549%,100%);fill-opacity:1;" d="M 39.375 35.625 L 41.25 35.625 L 41.25 39.375 L 39.375 39.375 Z M 39.375 35.625 "/>
<path style=" stroke:none;fill-rule:nonzero;fill:rgb(24.705882%,51.372549%,100%);fill-opacity:1;" d="M 43.125 35.625 L 45 35.625 L 45 39.375 L 43.125 39.375 Z M 43.125 35.625 "/>
<path style=" stroke:none;fill-rule:nonzero;fill:rgb(24.705882%,51.372549%,100%);fill-opacity:1;" d="M 35.625 35.625 L 37.5 35.625 L 37.5 39.375 L 35.625 39.375 Z M 35.625 35.625 "/>
<path style=" stroke:none;fill-rule:nonzero;fill:rgb(68.627451%,79.607843%,100%);fill-opacity:1;" d="M 19.59375 24.375 L 16.03125 24.375 C 15.46875 24.375 15 23.90625 15 23.34375 L 15 20.71875 C 15 20.15625 15.46875 19.6875 16.03125 19.6875 L 19.59375 19.6875 C 20.15625 19.6875 20.625 20.15625 20.625 20.71875 L 20.625 23.34375 C 20.625 23.90625 20.15625 24.375 19.59375 24.375 Z M 19.59375 24.375 "/>
</g>
</svg>
