<?xml version="1.0" encoding="UTF-8"?>
<svg xmlns="http://www.w3.org/2000/svg" xmlns:xlink="http://www.w3.org/1999/xlink" width="60px" height="60px" viewBox="0 0 60 60" version="1.1">
<g id="surface1">
<path style=" stroke:none;fill-rule:nonzero;fill:rgb(68.627451%,79.607843%,100%);fill-opacity:1;" d="M 46.390625 22.867188 L 37.132812 13.609375 L 41.101562 9.644531 C 41.464844 9.277344 42.058594 9.277344 42.421875 9.644531 L 50.359375 17.578125 C 50.722656 17.945312 50.722656 18.535156 50.359375 18.902344 Z M 46.390625 22.867188 "/>
<path style=" stroke:none;fill-rule:nonzero;fill:rgb(24.705882%,51.372549%,100%);fill-opacity:1;" d="M 47.527344 24.375 L 51.679688 20.222656 C 52.773438 19.128906 52.773438 17.347656 51.679688 16.253906 L 43.746094 8.320312 C 42.652344 7.226562 40.871094 7.226562 39.777344 8.320312 L 35.625 12.472656 C 35.003906 12.308594 34.3125 12.460938 33.824219 12.949219 L 32.503906 14.273438 C 32.015625 14.757812 31.863281 15.449219 32.027344 16.070312 L 9.835938 38.261719 L 7.609375 47.605469 C 7.289062 48.960938 7.683594 50.351562 8.664062 51.335938 C 9.648438 52.316406 11.039062 52.710938 12.394531 52.390625 L 21.738281 50.164062 L 43.929688 27.972656 C 44.550781 28.136719 45.242188 27.984375 45.730469 27.496094 L 47.050781 26.171875 C 47.539062 25.6875 47.691406 24.996094 47.527344 24.375 Z M 44.40625 26.175781 L 33.824219 15.59375 L 35.148438 14.273438 L 45.726562 24.851562 Z M 21.992188 47.261719 C 21.730469 46.265625 21.355469 45.316406 20.871094 44.417969 L 40.4375 24.851562 L 42.421875 26.835938 Z M 13.984375 50.089844 C 13.871094 49.082031 13.441406 48.105469 12.667969 47.332031 C 11.894531 46.558594 10.917969 46.128906 9.910156 46.015625 L 10.566406 43.269531 C 12.113281 43.519531 13.539062 44.238281 14.648438 45.351562 C 15.761719 46.460938 16.480469 47.890625 16.730469 49.433594 Z M 15.972656 44.027344 C 14.617188 42.671875 12.878906 41.78125 11 41.449219 L 11.433594 39.628906 C 13.664062 40.039062 15.683594 41.089844 17.296875 42.703125 C 18.910156 44.316406 19.960938 46.335938 20.371094 48.566406 L 18.550781 49 C 18.21875 47.121094 17.328125 45.382812 15.972656 44.027344 Z M 18.617188 41.382812 C 18.171875 40.933594 17.691406 40.53125 17.195312 40.160156 L 36.472656 20.882812 L 39.117188 23.527344 L 19.839844 42.804688 C 19.46875 42.308594 19.066406 41.828125 18.617188 41.382812 Z M 15.582031 39.128906 C 14.683594 38.644531 13.734375 38.269531 12.738281 38.007812 L 33.164062 17.578125 L 35.148438 19.5625 Z M 41.101562 9.644531 C 41.464844 9.277344 42.058594 9.277344 42.421875 9.644531 L 50.359375 17.578125 C 50.722656 17.941406 50.722656 18.535156 50.359375 18.902344 L 46.390625 22.867188 L 37.132812 13.613281 Z M 41.101562 9.644531 "/>
</g>
</svg>
