<?xml version="1.0" encoding="UTF-8"?>
<svg xmlns="http://www.w3.org/2000/svg" xmlns:xlink="http://www.w3.org/1999/xlink" width="60px" height="60px" viewBox="0 0 60 60" version="1.1">
<g id="surface1">
<path style=" stroke:none;fill-rule:nonzero;fill:#6AD06A;fill-opacity:1;" d="M 35.601562 28.421875 L 24.84375 22.617188 C 24.214844 22.277344 23.4375 22.714844 23.4375 23.40625 L 23.4375 27.1875 C 23.4375 27.703125 23.015625 28.125 22.5 28.125 L 6.5625 28.125 C 6.046875 28.125 5.625 28.546875 5.625 29.0625 L 5.625 30.9375 C 5.625 31.453125 6.046875 31.875 6.5625 31.875 L 22.5 31.875 C 23.015625 31.875 23.4375 32.296875 23.4375 32.8125 L 23.4375 36.59375 C 23.4375 37.285156 24.214844 37.722656 24.84375 37.382812 L 35.601562 31.578125 C 36.855469 30.902344 36.855469 29.097656 35.601562 28.421875 Z M 35.601562 28.421875 "/>
<path style=" stroke:none;fill-rule:nonzero;fill:#6AD06A;fill-opacity:1;" d="M 31.875 52.5 C 21.410156 52.5 12.167969 45.09375 9.910156 34.890625 L 11.738281 34.484375 C 13.8125 43.835938 22.28125 50.625 31.875 50.625 C 43.246094 50.625 52.5 41.371094 52.5 30 C 52.5 18.628906 43.246094 9.375 31.875 9.375 C 22.28125 9.375 13.8125 16.164062 11.738281 25.515625 L 9.910156 25.109375 C 12.167969 14.90625 21.410156 7.5 31.875 7.5 C 44.28125 7.5 54.375 17.59375 54.375 30 C 54.375 42.40625 44.28125 52.5 31.875 52.5 Z M 31.875 52.5 "/>
<path style=" stroke:none;fill-rule:nonzero;fill:#6AD06A;fill-opacity:1;" d="M 31.875 48.75 C 23.433594 48.75 15.996094 43.066406 13.78125 34.933594 L 15.589844 34.441406 C 17.582031 41.761719 24.277344 46.875 31.875 46.875 C 41.179688 46.875 48.75 39.304688 48.75 30 C 48.75 20.695312 41.179688 13.125 31.875 13.125 C 24.277344 13.125 17.582031 18.238281 15.589844 25.558594 L 13.78125 25.066406 C 15.996094 16.933594 23.4375 11.25 31.875 11.25 C 42.214844 11.25 50.625 19.660156 50.625 30 C 50.625 40.339844 42.214844 48.75 31.875 48.75 Z M 31.875 48.75 "/>
</g>
</svg>
