<?xml version="1.0" encoding="UTF-8"?>
<svg xmlns="http://www.w3.org/2000/svg" xmlns:xlink="http://www.w3.org/1999/xlink" width="60px" height="60px" viewBox="0 0 60 60" version="1.1">
<g id="surface1">
<path style=" stroke:none;fill-rule:nonzero;fill:rgb(24.705882%,51.372549%,100%);fill-opacity:1;" d="M 51.5625 8.4375 L 34.6875 8.4375 C 33.136719 8.4375 31.875 9.699219 31.875 11.25 L 31.875 14.0625 L 30.9375 14.0625 C 29.398438 14.0625 28.042969 14.816406 27.1875 15.964844 C 26.332031 14.816406 24.976562 14.0625 23.4375 14.0625 L 12.160156 14.0625 C 10.625 14.0625 9.375 15.3125 9.375 16.847656 L 9.375 17.8125 L 8.4375 17.8125 C 6.886719 17.8125 5.625 19.074219 5.625 20.625 L 5.625 46.875 C 5.625 48.425781 6.886719 49.6875 8.4375 49.6875 L 23.597656 49.6875 C 23.984375 50.777344 25.027344 51.5625 26.25 51.5625 L 28.125 51.5625 C 29.347656 51.5625 30.390625 50.777344 30.777344 49.6875 L 45.9375 49.6875 C 47.488281 49.6875 48.75 48.425781 48.75 46.875 L 48.75 27.1875 L 51.5625 27.1875 C 53.113281 27.1875 54.375 25.925781 54.375 24.375 L 54.375 11.25 C 54.375 9.699219 53.113281 8.4375 51.5625 8.4375 Z M 30.9375 15.9375 L 31.875 15.9375 L 31.875 29.695312 C 31.875 31.09375 32.636719 32.296875 33.769531 32.6875 C 34.019531 32.769531 34.273438 32.8125 34.523438 32.8125 C 35.246094 32.8125 35.945312 32.460938 36.453125 31.8125 L 39.851562 27.464844 C 39.988281 27.285156 40.152344 27.1875 40.3125 27.1875 L 43.125 27.1875 L 43.125 40.3125 L 30.9375 40.3125 C 29.882812 40.3125 28.910156 40.664062 28.125 41.25 L 28.125 18.75 C 28.125 17.199219 29.386719 15.9375 30.9375 15.9375 Z M 11.25 42.1875 L 23.4375 42.1875 C 24.65625 42.1875 25.6875 42.972656 26.078125 44.0625 L 12.160156 44.0625 C 11.65625 44.0625 11.25 43.65625 11.25 43.152344 Z M 43.125 42.1875 L 43.125 43.152344 C 43.125 43.65625 42.71875 44.0625 42.214844 44.0625 L 28.296875 44.0625 C 28.6875 42.972656 29.71875 42.1875 30.9375 42.1875 Z M 11.25 16.847656 C 11.25 16.34375 11.65625 15.9375 12.160156 15.9375 L 23.4375 15.9375 C 24.988281 15.9375 26.25 17.199219 26.25 18.75 L 26.25 41.273438 C 25.464844 40.679688 24.496094 40.3125 23.4375 40.3125 L 11.25 40.3125 Z M 46.875 46.875 C 46.875 47.390625 46.453125 47.8125 45.9375 47.8125 L 29.0625 47.8125 L 29.0625 48.75 C 29.0625 49.265625 28.640625 49.6875 28.125 49.6875 L 26.25 49.6875 C 25.734375 49.6875 25.3125 49.265625 25.3125 48.75 L 25.3125 47.8125 L 8.4375 47.8125 C 7.921875 47.8125 7.5 47.390625 7.5 46.875 L 7.5 20.625 C 7.5 20.109375 7.921875 19.6875 8.4375 19.6875 L 9.375 19.6875 L 9.375 43.152344 C 9.375 44.6875 10.625 45.9375 12.160156 45.9375 L 42.214844 45.9375 C 43.75 45.9375 45 44.6875 45 43.152344 L 45 27.1875 L 46.875 27.1875 Z M 52.5 24.375 C 52.5 24.890625 52.078125 25.3125 51.5625 25.3125 L 40.3125 25.3125 C 39.574219 25.3125 38.867188 25.675781 38.371094 26.308594 L 34.972656 30.65625 C 34.691406 31.019531 34.460938 30.9375 34.382812 30.914062 C 34.078125 30.808594 33.75 30.382812 33.75 29.695312 L 33.75 11.25 C 33.75 10.734375 34.171875 10.3125 34.6875 10.3125 L 51.5625 10.3125 C 52.078125 10.3125 52.5 10.734375 52.5 11.25 Z M 52.5 24.375 "/>
<path style=" stroke:none;fill-rule:nonzero;fill:rgb(24.705882%,51.372549%,100%);fill-opacity:1;" d="M 36.5625 13.125 L 44.0625 13.125 L 44.0625 15 L 36.5625 15 Z M 36.5625 13.125 "/>
<path style=" stroke:none;fill-rule:nonzero;fill:rgb(24.705882%,51.372549%,100%);fill-opacity:1;" d="M 36.5625 16.875 L 44.0625 16.875 L 44.0625 18.75 L 36.5625 18.75 Z M 36.5625 16.875 "/>
<path style=" stroke:none;fill-rule:nonzero;fill:rgb(24.705882%,51.372549%,100%);fill-opacity:1;" d="M 36.5625 20.625 L 44.0625 20.625 L 44.0625 22.5 L 36.5625 22.5 Z M 36.5625 20.625 "/>
<path style=" stroke:none;fill-rule:nonzero;fill:rgb(24.705882%,51.372549%,100%);fill-opacity:1;" d="M 46.875 18.75 L 48.75 18.75 L 48.75 22.5 L 46.875 22.5 Z M 46.875 18.75 "/>
<path style=" stroke:none;fill-rule:nonzero;fill:rgb(24.705882%,51.372549%,100%);fill-opacity:1;" d="M 47.8125 13.125 C 46.777344 13.125 45.9375 13.964844 45.9375 15 C 45.9375 16.035156 46.777344 16.875 47.8125 16.875 C 48.847656 16.875 49.6875 16.035156 49.6875 15 C 49.6875 13.964844 48.847656 13.125 47.8125 13.125 Z M 47.8125 13.125 "/>
<path style=" stroke:none;fill-rule:nonzero;fill:rgb(24.705882%,51.372549%,100%);fill-opacity:1;" d="M 13.125 21.5625 L 24.375 21.5625 L 24.375 23.4375 L 13.125 23.4375 Z M 13.125 21.5625 "/>
<path style=" stroke:none;fill-rule:nonzero;fill:rgb(24.705882%,51.372549%,100%);fill-opacity:1;" d="M 13.125 25.3125 L 24.375 25.3125 L 24.375 27.1875 L 13.125 27.1875 Z M 13.125 25.3125 "/>
<path style=" stroke:none;fill-rule:nonzero;fill:rgb(24.705882%,51.372549%,100%);fill-opacity:1;" d="M 13.125 29.0625 L 24.375 29.0625 L 24.375 30.9375 L 13.125 30.9375 Z M 13.125 29.0625 "/>
<path style=" stroke:none;fill-rule:nonzero;fill:rgb(68.627451%,79.607843%,100%);fill-opacity:1;" d="M 23.421875 36.5625 L 14.078125 36.5625 C 13.550781 36.5625 13.125 36.136719 13.125 35.609375 L 13.125 33.765625 C 13.125 33.238281 13.550781 32.8125 14.078125 32.8125 L 23.421875 32.8125 C 23.949219 32.8125 24.375 33.238281 24.375 33.765625 L 24.375 35.609375 C 24.375 36.136719 23.949219 36.5625 23.421875 36.5625 Z M 23.421875 36.5625 "/>
</g>
</svg>
