<?xml version="1.0" encoding="UTF-8"?>
<svg xmlns="http://www.w3.org/2000/svg" xmlns:xlink="http://www.w3.org/1999/xlink" width="60px" height="60px" viewBox="0 0 60 60" version="1.1">
<g id="surface1">
<path style=" stroke:none;fill-rule:nonzero;fill:rgb(68.627451%,79.607843%,100%);fill-opacity:1;" d="M 33.75 9.375 L 26.25 9.375 L 23.4375 15 L 23.4375 26.515625 C 23.4375 27.230469 24.210938 27.679688 24.835938 27.328125 L 30 24.375 L 35.164062 27.328125 C 35.789062 27.683594 36.5625 27.234375 36.5625 26.515625 L 36.5625 15 Z M 33.75 9.375 "/>
<path style=" stroke:none;fill-rule:nonzero;fill:rgb(24.705882%,51.372549%,100%);fill-opacity:1;" d="M 53.214844 14.257812 L 48.703125 9.101562 C 47.8125 8.085938 46.523438 7.5 45.171875 7.5 L 14.828125 7.5 C 13.476562 7.5 12.1875 8.085938 11.296875 9.101562 L 6.785156 14.257812 C 6.035156 15.113281 5.625 16.210938 5.625 17.347656 L 5.625 47.808594 C 5.625 50.394531 7.730469 52.5 10.316406 52.5 L 49.683594 52.5 C 52.269531 52.5 54.375 50.394531 54.375 47.808594 L 54.375 17.347656 C 54.375 16.210938 53.964844 15.113281 53.214844 14.257812 Z M 47.289062 10.335938 L 51.371094 15 L 37.214844 15 L 35.105469 9.375 L 45.171875 9.375 C 45.984375 9.375 46.757812 9.726562 47.289062 10.335938 Z M 24.375 16.875 L 35.625 16.875 L 35.621094 26.507812 L 30.933594 23.828125 C 30.359375 23.5 29.644531 23.5 29.070312 23.828125 L 24.375 26.503906 Z M 24.789062 15 L 26.898438 9.375 L 33.097656 9.375 L 35.207031 15 Z M 12.710938 10.335938 C 13.242188 9.726562 14.015625 9.375 14.828125 9.375 L 24.894531 9.375 L 22.785156 15 L 8.628906 15 Z M 52.5 47.808594 C 52.5 49.359375 51.234375 50.625 49.683594 50.625 L 10.316406 50.625 C 8.765625 50.625 7.5 49.359375 7.5 47.808594 L 7.5 17.347656 C 7.5 17.1875 7.515625 17.03125 7.542969 16.875 L 22.5 16.875 L 22.5 26.503906 C 22.5 27.179688 22.851562 27.789062 23.4375 28.128906 C 23.730469 28.300781 24.054688 28.382812 24.378906 28.382812 C 24.699219 28.382812 25.019531 28.300781 25.3125 28.132812 L 30 25.457031 L 34.6875 28.132812 C 35.273438 28.46875 35.976562 28.464844 36.5625 28.125 C 37.148438 27.789062 37.5 27.179688 37.5 26.503906 L 37.5 16.875 L 52.457031 16.875 C 52.484375 17.03125 52.5 17.1875 52.5 17.347656 Z M 52.5 47.808594 "/>
<path style=" stroke:none;fill-rule:nonzero;fill:rgb(24.705882%,51.372549%,100%);fill-opacity:1;" d="M 34.6875 31.875 L 25.3125 31.875 C 23.761719 31.875 22.5 33.136719 22.5 34.6875 C 22.5 36.238281 23.761719 37.5 25.3125 37.5 L 34.6875 37.5 C 36.238281 37.5 37.5 36.238281 37.5 34.6875 C 37.5 33.136719 36.238281 31.875 34.6875 31.875 Z M 34.6875 35.625 L 25.3125 35.625 C 24.796875 35.625 24.375 35.203125 24.375 34.6875 C 24.375 34.171875 24.796875 33.75 25.3125 33.75 L 34.6875 33.75 C 35.203125 33.75 35.625 34.171875 35.625 34.6875 C 35.625 35.203125 35.203125 35.625 34.6875 35.625 Z M 34.6875 35.625 "/>
<path style=" stroke:none;fill-rule:nonzero;fill:rgb(24.705882%,51.372549%,100%);fill-opacity:1;" d="M 43.125 43.125 L 50.625 43.125 L 50.625 45 L 43.125 45 Z M 43.125 43.125 "/>
<path style=" stroke:none;fill-rule:nonzero;fill:rgb(24.705882%,51.372549%,100%);fill-opacity:1;" d="M 39.375 46.875 L 50.625 46.875 L 50.625 48.75 L 39.375 48.75 Z M 39.375 46.875 "/>
<path style=" stroke:none;fill-rule:nonzero;fill:rgb(24.705882%,51.372549%,100%);fill-opacity:1;" d="M 9.375 45 L 11.25 45 L 11.25 48.75 L 9.375 48.75 Z M 9.375 45 "/>
<path style=" stroke:none;fill-rule:nonzero;fill:rgb(24.705882%,51.372549%,100%);fill-opacity:1;" d="M 13.125 45 L 15 45 L 15 48.75 L 13.125 48.75 Z M 13.125 45 "/>
<path style=" stroke:none;fill-rule:nonzero;fill:rgb(24.705882%,51.372549%,100%);fill-opacity:1;" d="M 16.875 45 L 18.75 45 L 18.75 48.75 L 16.875 48.75 Z M 16.875 45 "/>
<path style=" stroke:none;fill-rule:nonzero;fill:rgb(24.705882%,51.372549%,100%);fill-opacity:1;" d="M 20.625 45 L 22.5 45 L 22.5 48.75 L 20.625 48.75 Z M 20.625 45 "/>
<path style=" stroke:none;fill-rule:nonzero;fill:rgb(24.705882%,51.372549%,100%);fill-opacity:1;" d="M 16.875 18.75 L 11.25 18.75 C 10.214844 18.75 9.375 19.589844 9.375 20.625 L 9.375 26.25 C 9.375 27.285156 10.214844 28.125 11.25 28.125 L 16.875 28.125 C 17.910156 28.125 18.75 27.285156 18.75 26.25 L 18.75 20.625 C 18.75 19.589844 17.910156 18.75 16.875 18.75 Z M 11.25 26.25 L 11.25 20.625 L 16.875 20.625 L 16.875 26.25 Z M 11.25 26.25 "/>
<path style=" stroke:none;fill-rule:nonzero;fill:rgb(68.627451%,79.607843%,100%);fill-opacity:1;" d="M 34.6875 35.625 L 25.3125 35.625 C 24.796875 35.625 24.375 35.203125 24.375 34.6875 C 24.375 34.171875 24.796875 33.75 25.3125 33.75 L 34.6875 33.75 C 35.203125 33.75 35.625 34.171875 35.625 34.6875 C 35.625 35.203125 35.203125 35.625 34.6875 35.625 Z M 34.6875 35.625 "/>
</g>
</svg>
