<?xml version="1.0" encoding="UTF-8"?>
<svg xmlns="http://www.w3.org/2000/svg" xmlns:xlink="http://www.w3.org/1999/xlink" width="60px" height="60px" viewBox="0 0 60 60" version="1.1">
<g id="surface1">
<path style=" stroke:none;fill-rule:nonzero;fill:rgb(68.627451%,79.607843%,100%);fill-opacity:1;" d="M 30 25.3125 C 27.410156 25.3125 25.3125 27.410156 25.3125 30 C 25.3125 32.589844 27.410156 34.6875 30 34.6875 C 32.589844 34.6875 34.6875 32.589844 34.6875 30 C 34.6875 27.410156 32.589844 25.3125 30 25.3125 Z M 30 25.3125 "/>
<path style=" stroke:none;fill-rule:nonzero;fill:rgb(24.705882%,51.372549%,100%);fill-opacity:1;" d="M 30 5.625 C 16.558594 5.625 5.625 16.558594 5.625 30 C 5.625 43.441406 16.558594 54.375 30 54.375 C 43.441406 54.375 54.375 43.441406 54.375 30 C 54.375 16.558594 43.441406 5.625 30 5.625 Z M 30 52.5 C 17.59375 52.5 7.5 42.40625 7.5 30 C 7.5 17.59375 17.59375 7.5 30 7.5 C 42.40625 7.5 52.5 17.59375 52.5 30 C 52.5 42.40625 42.40625 52.5 30 52.5 Z M 30 52.5 "/>
<path style=" stroke:none;fill-rule:nonzero;fill:rgb(24.705882%,51.372549%,100%);fill-opacity:1;" d="M 30 14.0625 C 26.640625 14.0625 23.425781 15.097656 20.707031 17.050781 L 21.800781 18.574219 C 24.199219 16.851562 27.035156 15.9375 30 15.9375 C 37.753906 15.9375 44.0625 22.246094 44.0625 30 C 44.0625 37.753906 37.753906 44.0625 30 44.0625 C 22.5625 44.0625 16.472656 38.253906 15.984375 30.9375 L 18.613281 30.9375 C 19.335938 30.9375 19.988281 30.574219 20.351562 29.964844 C 20.699219 29.382812 20.71875 28.683594 20.402344 28.09375 L 17.066406 21.863281 C 16.65625 21.105469 15.867188 20.632812 15.003906 20.632812 C 14.136719 20.632812 13.34375 21.109375 12.933594 21.871094 L 9.601562 28.089844 C 9.285156 28.683594 9.300781 29.382812 9.648438 29.964844 C 10.015625 30.574219 10.664062 30.9375 11.386719 30.9375 L 14.109375 30.9375 C 14.601562 39.289062 21.527344 45.9375 30 45.9375 C 38.789062 45.9375 45.9375 38.789062 45.9375 30 C 45.9375 21.210938 38.789062 14.0625 30 14.0625 Z M 11.253906 28.976562 L 14.585938 22.757812 C 14.707031 22.53125 14.917969 22.507812 15.003906 22.507812 C 15.109375 22.507812 15.300781 22.539062 15.414062 22.75 L 18.75 28.984375 C 18.75 28.992188 18.71875 29.0625 18.613281 29.0625 L 11.386719 29.0625 C 11.277344 29.0625 11.25 28.992188 11.253906 28.976562 Z M 11.253906 28.976562 "/>
</g>
</svg>
