<svg version="1.1" xmlns="http://www.w3.org/2000/svg" xmlns:xlink="http://www.w3.org/1999/xlink" viewBox="0 0 172 172"><defs><linearGradient x1="86" y1="70.76994" x2="86" y2="116.46013" gradientUnits="userSpaceOnUse" id="color-1"><stop offset="0" stop-color="#81d481"></stop><stop offset="1" stop-color="#74d274"></stop></linearGradient><linearGradient x1="61.8125" y1="34.48869" x2="61.8125" y2="144.97181" gradientUnits="userSpaceOnUse" id="color-2"><stop offset="0" stop-color="#3aab3a"></stop><stop offset="1" stop-color="#34a234"></stop></linearGradient><linearGradient x1="130.34375" y1="34.48869" x2="130.34375" y2="144.97181" gradientUnits="userSpaceOnUse" id="color-3"><stop offset="0" stop-color="#3aab3a"></stop><stop offset="1" stop-color="#34a234"></stop></linearGradient><linearGradient x1="86" y1="32.25" x2="86" y2="148.71013" gradientUnits="userSpaceOnUse" id="color-4"><stop offset="0" stop-color="#3aab3a"></stop><stop offset="1" stop-color="#34a234"></stop></linearGradient></defs><g fill="none" fill-rule="nonzero" stroke="none" stroke-width="1" stroke-linecap="butt" stroke-linejoin="miter" stroke-miterlimit="10" stroke-dasharray="" stroke-dashoffset="0" font-family="none" font-weight="none" font-size="none" text-anchor="none" style="mix-blend-mode: normal"><path d="M0,172v-172h172v172z" fill="none"></path><g id="original-icon"><path d="M102.45825,99.43213h-5.70825c-1.4835,0 -2.6875,1.16637 -2.6875,2.65256v8.10013c0,1.48081 -1.19862,2.68481 -2.67944,2.68481h-10.76612c-1.48081,0 -2.67944,-1.204 -2.67944,-2.68481v-8.10013c0,-1.48619 -1.204,-2.65256 -2.6875,-2.65256h-5.70825c-1.93769,0 -3.04225,-2.39188 -1.88125,-4.05275l14.577,-20.855c1.8275,-2.61494 5.69481,-2.61763 7.52231,-0.00538l14.577,20.86306c1.16369,1.66088 0.05644,4.05006 -1.87856,4.05006z" fill="url(#color-1)"></path><path d="M51.0625,67.1875h5.375c0,-8.0625 7.23206,-16.12231 16.125,-16.12231v-5.375c-11.85456,0 -21.5,10.74731 -21.5,21.49731z" fill="url(#color-2)"></path><path d="M139.75,80.625c0,-10.75 -8.44144,-18.80981 -18.8125,-18.80981v5.375c7.40944,0 13.4375,5.37231 13.4375,13.43481z" fill="url(#color-3)"></path><path d="M148.09738,92.27263c1.59369,-3.68188 2.40263,-7.59219 2.40263,-11.64494c0,-16.29969 -13.26281,-29.5625 -29.5625,-29.5625c-6.5145,0 -12.68769,2.08819 -17.78588,5.96088c-4.30269,-13.03438 -16.52006,-22.08587 -30.58912,-22.08587c-17.78319,0 -32.25,14.46681 -32.25,32.25c0,4.14681 0.16662,8.05981 1.42437,10.74731h-1.42437c-13.33806,0 -24.1875,10.84944 -24.1875,24.1875c0,11.56431 8.16194,21.24737 19.0275,23.62044c1.02394,6.39894 6.53869,11.31706 13.2225,11.31706h56.4375h16.125h5.375c6.54944,0 12.00238,-4.71388 13.18488,-10.92469c9.2235,-1.20131 16.37762,-9.08913 16.37762,-18.63513c0,-6.09256 -2.924,-11.72019 -7.77762,-15.23006zM126.3125,131.6875h-5.375h-16.125h-56.4375c-3.49912,0 -6.45538,-2.6875 -7.568,-5.375h93.0735c-1.11263,2.6875 -4.06888,5.375 -7.568,5.375zM137.0625,120.9375h-96.75c-10.37106,0 -18.8125,-8.44144 -18.8125,-18.8125c0,-10.37106 8.44144,-18.8125 18.8125,-18.8125h9.51375l-1.68506,-3.78131c-2.23063,-5.01488 -2.45369,-7.48737 -2.45369,-12.341c0,-14.81888 12.05613,-26.875 26.875,-26.875c13.01825,0 24.13106,9.29875 26.42619,22.11275l0.92719,5.17075l3.64962,-3.77325c4.60638,-4.76225 10.77687,-7.38525 17.372,-7.38525c13.33806,0 24.1875,10.84944 24.1875,24.1875c0,3.6765 -0.81431,7.21056 -2.37575,10.41944l-1.763,3.32713l2.37037,1.26044c4.40481,2.34081 7.14338,6.88806 7.14338,11.868c0,7.40944 -6.02806,13.43481 -13.4375,13.43481z" fill="url(#color-4)"></path></g></g></svg>