<?xml version="1.0" encoding="UTF-8"?>
<svg xmlns="http://www.w3.org/2000/svg" xmlns:xlink="http://www.w3.org/1999/xlink" width="60px" height="60px" viewBox="0 0 60 60" version="1.1">
<g id="surface1">
<path style=" stroke:none;fill-rule:nonzero;fill:rgb(24.705882%,51.372549%,100%);fill-opacity:1;" d="M 56.246094 39.347656 C 56.242188 39.25 56.230469 39.15625 56.199219 39.066406 L 46.644531 11.878906 C 46.511719 11.5 46.160156 11.25 45.761719 11.25 L 14.238281 11.25 C 13.839844 11.25 13.484375 11.5 13.355469 11.875 L 3.804688 39.0625 C 3.773438 39.15625 3.757812 39.25 3.757812 39.34375 C 3.753906 39.355469 3.75 39.363281 3.75 39.375 L 3.75 50.625 C 3.75 51.144531 4.167969 51.5625 4.6875 51.5625 L 15.9375 51.5625 C 16.457031 51.5625 16.875 51.144531 16.875 50.625 L 16.875 45.9375 L 43.125 45.9375 L 43.125 50.625 C 43.125 51.144531 43.542969 51.5625 44.0625 51.5625 L 55.3125 51.5625 C 55.832031 51.5625 56.25 51.144531 56.25 50.625 L 56.25 39.375 C 56.25 39.363281 56.246094 39.355469 56.246094 39.347656 Z M 53.988281 38.4375 L 43.914062 38.4375 L 39.550781 13.125 L 45.09375 13.125 Z M 17.988281 38.4375 L 22.351562 13.125 L 29.0625 13.125 L 29.0625 38.4375 Z M 30.9375 13.125 L 37.648438 13.125 L 42.011719 38.4375 L 30.9375 38.4375 Z M 14.902344 13.125 L 20.449219 13.125 L 16.085938 38.4375 L 6.011719 38.4375 Z M 45 49.6875 L 45 45 C 45 44.480469 44.582031 44.0625 44.0625 44.0625 L 15.9375 44.0625 C 15.417969 44.0625 15 44.480469 15 45 L 15 49.6875 L 5.625 49.6875 L 5.625 47.8125 L 12.1875 47.8125 L 12.1875 45.9375 L 5.625 45.9375 L 5.625 44.0625 L 9.375 44.0625 L 9.375 42.1875 L 5.625 42.1875 L 5.625 40.3125 L 54.375 40.3125 L 54.375 42.1875 L 50.625 42.1875 L 50.625 44.0625 L 54.375 44.0625 L 54.375 45.9375 L 47.8125 45.9375 L 47.8125 47.8125 L 54.375 47.8125 L 54.375 49.6875 Z M 45 49.6875 "/>
<path style=" stroke:none;fill-rule:nonzero;fill:rgb(68.627451%,79.607843%,100%);fill-opacity:1;" d="M 41.777344 15 L 45.492188 36.5625 L 51.34375 36.5625 L 43.769531 15 Z M 41.777344 15 "/>
<path style=" stroke:none;fill-rule:nonzero;fill:rgb(68.627451%,79.607843%,100%);fill-opacity:1;" d="M 14.507812 36.5625 L 18.222656 15 L 16.230469 15 L 8.65625 36.5625 Z M 14.507812 36.5625 "/>
<path style=" stroke:none;fill-rule:nonzero;fill:rgb(68.627451%,79.607843%,100%);fill-opacity:1;" d="M 32.8125 36.5625 L 39.785156 36.5625 L 36.070312 15 L 32.8125 15 Z M 32.8125 36.5625 "/>
<path style=" stroke:none;fill-rule:nonzero;fill:rgb(68.627451%,79.607843%,100%);fill-opacity:1;" d="M 27.1875 36.5625 L 27.1875 15 L 23.929688 15 L 20.214844 36.5625 Z M 27.1875 36.5625 "/>
</g>
</svg>
